<svg xmlns="http://www.w3.org/2000/svg" width="78.937" height="138.75" viewBox="0 0 78.937 138.75">
  <defs>
    <style>
      .cls-1 {
        fill: #e84d37;
        fill-rule: evenodd;
      }
    </style>
  </defs>
  <path id="Пин" class="cls-1" d="M322.746,2096.93l-1.051,1.06-2.845-2.85a19.4,19.4,0,0,1-1.675-1.15,18.841,18.841,0,0,1-5.024,5.12,18.462,18.462,0,0,1-4.537,2.27l-1.945,1.95-1.179-1.18a19.422,19.422,0,0,1-2.861.22q-0.543,0-1.081-.03l3.056,3.05-3.277,3.28-3.278-3.28,3.084-3.08a18.688,18.688,0,0,1-3.5-.63l-1.649,1.65-3.277-3.28,0.348-.35a18.708,18.708,0,0,1-2.409-1.72l0,0.01-0.041-.05a18.622,18.622,0,0,1-1.932-1.89,15.909,15.909,0,0,1-5.61,1.7l21.4,60.96c0.608,1.73,1.41,2.6,2.212,2.6s1.6-.87,2.212-2.6l21.367-60.88c-0.237.01-.475,0.02-0.714,0.02A18.411,18.411,0,0,1,322.746,2096.93Zm-6.393-.16,3.277,3.28-3.277,3.28-3.277-3.28Zm-5.342,5.34,3.277,3.28-3.277,3.28-3.278-3.28Zm-8.62,19.31,3.278-3.28,3.277,3.28-3.277,3.28Zm6.555,10.68-3.277,3.28-3.278-3.28,3.278-3.27Zm-1.213-16.02,3.278-3.28,3.277,3.28-3.277,3.27Zm-2.064-8.62,3.277,3.27-3.277,3.28-3.278-3.28Zm-2.065,8.62-3.278,3.27-3.277-3.27,3.278-3.28Zm-14.288-13.64,0.326-.33,3.278,3.28-1.9,1.9Zm2.776,7.91,2.892-2.89,3.277,3.27-3.277,3.28-2.475-2.47Zm2.776,7.91,0.116-.12,3.277,3.28-1.69,1.69Zm3.419,9.74-0.643-1.83,2.682-2.69,3.278,3.28-3.277,3.28Zm2.234,6.36,3.083,3.09-1.481,1.48Zm5.148,14.67-2.474-7.05,2.474-2.47,2.473,2.47Zm3.546-10.1-1.482-1.48,3.084-3.09ZM313.05,2128l-2.039,2.04-3.278-3.28,3.278-3.28,2.682,2.69Zm1.716-4.89-1.69-1.69,3.277-3.28,0.116,0.12Zm4.063-11.57-2.476,2.47-3.277-3.28,3.277-3.27,2.892,2.89Zm1.489-4.25-1.9-1.9,3.277-3.28,0.326,0.33Zm19.416-40.28a35.242,35.242,0,1,0-67.118,2.97,14.063,14.063,0,1,0,15.514,23.46,16.66,16.66,0,0,0,13.484,6.92,16.608,16.608,0,0,0,14.727-8.94l0.668-.21A16.6,16.6,0,1,0,339.734,2067.01Zm-11.215,22.54a10.237,10.237,0,0,1-8.133-3.97,3.141,3.141,0,0,0-3.675-.97,27.731,27.731,0,0,1-3.442,1.16,3.163,3.163,0,0,0-2.094,1.86,10.311,10.311,0,0,1-19.255-.35,3.14,3.14,0,0,0-2.487-2.03,2.48,2.48,0,0,0-.468-0.04,3.153,3.153,0,0,0-2.508,1.25,7.77,7.77,0,1,1-8.769-12.01,3.152,3.152,0,0,0,1.807-4.31,28.951,28.951,0,1,1,53.635-3.01,3.144,3.144,0,0,0,1.2,3.6A10.307,10.307,0,0,1,328.519,2089.55Z" transform="translate(-266.188 -2022.56)"/>
</svg>
