<svg xmlns="http://www.w3.org/2000/svg" width="31.38" height="31.4" viewBox="0 0 31.38 31.4">
  <defs>
    <style>
      .cls-1 {
        fill: #fff;
        fill-rule: evenodd;
        opacity: 0.8;
      }
    </style>
  </defs>
  <path id="Твитер" class="cls-1" d="M1226.43,2208.17a15.69,15.69,0,1,1-15.69,15.69A15.69,15.69,0,0,1,1226.43,2208.17Zm9.13,10.81a7.6,7.6,0,0,1-2.09.57,3.661,3.661,0,0,0,1.6-2.02,7.347,7.347,0,0,1-2.31.89,3.643,3.643,0,0,0-6.3,2.49,3.77,3.77,0,0,0,.09.83,10.3,10.3,0,0,1-7.5-3.81,3.6,3.6,0,0,0-.5,1.84,3.67,3.67,0,0,0,1.62,3.03,3.74,3.74,0,0,1-1.65-.46v0.05a3.655,3.655,0,0,0,2.93,3.57,3.535,3.535,0,0,1-1.65.06,3.641,3.641,0,0,0,3.4,2.53,7.259,7.259,0,0,1-4.52,1.56,8.457,8.457,0,0,1-.87-0.05,10.357,10.357,0,0,0,15.95-8.73c0-.16-0.01-0.31-0.01-0.47A7.192,7.192,0,0,0,1235.56,2218.98Z" transform="translate(-1210.75 -2208.16)"/>
</svg>
